# xmcd
#
# Track frame offsets:
#	150
#	26047
#	47044
#	75401
#	98017
#	118689
#	133176
#	163350
#	174698
#	208790
#	239448
#
# Disc length: 3595 seconds
#
# Revision: 0
# Processed by: cddbd v1.5.2PL0 Copyright (c) Steve Scherf et al.
# Submitted via: audiograbber 1.83.01
#
DISCID=980e090b
DTITLE=Whorrid - Time Heals Nothing
DYEAR=2009
DGENRE=Death Metal
TTITLE0=Infecting the Soul
TTITLE1=Pain Within
TTITLE2=American Graveyard
TTITLE3=Evil Thoughts
TTITLE4=How Does It Feel
TTITLE5=Society
TTITLE6=Loving Memory
TTITLE7=Worst of Times
TTITLE8=Left for Dead
TTITLE9=Lap Dance
TTITLE10=Infecting the Soul (video)
EXTD=
EXTT0=
EXTT1=
EXTT2=
EXTT3=
EXTT4=
EXTT5=
EXTT6=
EXTT7=
EXTT8=
EXTT9=
EXTT10=
PLAYORDER=
